<?xml version="1.0" standalone="no"?>
<!DOCTYPE svg PUBLIC "-//W3C//DTD SVG 20010904//EN"
 "http://www.w3.org/TR/2001/REC-SVG-20010904/DTD/svg10.dtd">
<svg version="1.0" xmlns="http://www.w3.org/2000/svg"
 width="400.000000pt" height="400.000000pt" viewBox="0 0 400.000000 400.000000"
 preserveAspectRatio="xMidYMid meet">

<g transform="translate(0.000000,400.000000) scale(0.100000,-0.100000)"
fill="#000000" stroke="none">
<path d="M0 2000 l0 -2000 2000 0 2000 0 0 2000 0 2000 -2000 0 -2000 0 0
-2000z m2063 1101 c106 -54 372 -190 592 -301 220 -112 406 -207 413 -213 9
-7 12 -156 12 -686 l-1 -676 -250 -155 c-137 -85 -280 -174 -317 -198 -37 -23
-79 -49 -94 -57 l-28 -16 -1 688 0 688 -600 299 -599 300 82 53 c112 71 592
372 596 372 1 1 89 -43 195 -98z m-403 -1032 c168 -65 287 -203 331 -384 23
-96 23 -137 4 -230 -23 -108 -68 -189 -151 -273 -110 -110 -231 -161 -386
-162 -295 -1 -538 245 -538 541 1 198 93 365 262 472 129 81 324 96 478 36z"/>
</g>
</svg>
