<?xml version="1.0" standalone="no"?>
<!DOCTYPE svg PUBLIC "-//W3C//DTD SVG 20010904//EN"
 "http://www.w3.org/TR/2001/REC-SVG-20010904/DTD/svg10.dtd">
<svg version="1.0" xmlns="http://www.w3.org/2000/svg"
 width="200.000000pt" height="200.000000pt" viewBox="0 0 200.000000 200.000000"
 preserveAspectRatio="xMidYMid meet">

<g transform="translate(0.000000,200.000000) scale(0.100000,-0.100000)"
fill="#000000" stroke="none">
<path d="M304 1960 c-109 -23 -217 -115 -250 -213 -28 -81 -24 -188 10 -262
29 -64 83 -127 129 -151 21 -11 25 -18 18 -32 -28 -54 -52 -195 -52 -309 1
-203 65 -380 191 -530 167 -199 391 -303 650 -303 370 0 687 229 802 580 27
83 31 113 36 235 4 128 2 148 -22 239 -85 318 -333 548 -664 615 -121 25 -324
9 -434 -34 -37 -15 -38 -14 -52 14 -24 45 -112 118 -164 135 -61 20 -146 27
-198 16z m3 -265 l-6 -35 33 35 c28 29 40 35 76 35 34 0 48 -6 75 -33 l34 -34
3 36 3 36 33 -32 c19 -19 32 -26 32 -17 0 20 18 17 30 -5 13 -25 13 -72 0
-105 -12 -32 -30 -34 -31 -3 l0 22 -9 -22 c-8 -19 -38 -43 -54 -43 -3 0 -6 17
-6 38 l-1 37 -15 -27 c-40 -74 -137 -75 -185 -2 l-19 29 3 -40 c3 -53 -22 -58
-68 -12 l-35 35 0 -31 -1 -32 -29 35 c-17 19 -30 28 -30 20 0 -10 -3 -11 -11
-3 -15 15 -7 99 9 95 7 -1 24 10 37 25 l24 28 1 -31 0 -32 34 34 c19 19 44 34
56 34 20 0 22 -4 17 -35z m436 -11 c5 -21 6 -67 3 -100 l-6 -62 43 16 c56 20
77 12 77 -30 0 -44 -5 -49 -75 -83 -73 -37 -174 -133 -207 -200 -85 -168 -77
-355 23 -504 48 -72 107 -122 192 -166 65 -33 75 -50 63 -101 -9 -34 -30 -31
-127 18 -195 97 -319 303 -319 526 0 68 28 190 56 245 15 28 15 30 -2 23 -34
-13 -118 -18 -153 -9 -66 17 -42 28 62 28 96 1 105 3 157 32 66 38 118 91 157
158 26 46 28 58 28 153 0 105 12 129 28 56z m528 -171 c102 -51 204 -154 252
-254 89 -186 87 -376 -6 -554 -46 -89 -155 -193 -248 -239 -85 -42 -122 -44
-127 -7 -7 47 6 65 70 96 76 36 172 128 212 204 129 243 29 552 -218 667 -27
12 -53 29 -57 36 -10 16 -12 72 -2 81 14 15 54 5 124 -30z m-237 -129 c12 -4
16 -20 16 -54 0 -45 2 -48 29 -53 40 -8 97 -61 111 -102 15 -46 7 -55 -45 -55
-35 0 -45 4 -50 20 -11 35 -54 60 -104 60 -64 0 -91 -21 -91 -70 0 -52 23 -66
135 -87 136 -25 190 -77 182 -175 -6 -71 -43 -120 -111 -149 l-56 -23 0 -48 0
-49 -47 3 -48 3 -5 49 c-5 48 -6 49 -50 62 -54 16 -96 57 -115 110 -17 49 -6
64 47 64 35 0 40 -3 53 -34 21 -50 50 -66 115 -66 58 1 79 11 98 47 17 32 15
49 -10 78 -18 20 -41 29 -108 41 -109 21 -152 43 -175 90 -46 97 3 205 105
231 32 8 35 13 38 49 1 21 5 45 7 52 5 13 52 16 79 6z"/>
</g>
</svg>
